<svg width="105" height="18" viewBox="0 0 105 18" fill="none" xmlns="http://www.w3.org/2000/svg">
<path d="M7.39517 4.4708H7.01716V7.21135H5.78864V0.690735H7.01716V3.62029L7.30067 3.52578L9.0962 0.785242H10.5137L8.62369 3.52578L8.15118 3.9038L8.71819 4.2818L10.8917 7.30585H9.28521L7.39517 4.4708Z" fill="white"/>
<path d="M10.9862 4.9433C10.9862 4.18728 11.1752 3.52577 11.5532 3.14776C11.9312 2.76976 12.4982 2.48625 13.1597 2.48625C13.5377 2.48625 13.8212 2.58075 14.1048 2.67525C14.3883 2.76976 14.5773 2.95876 14.7663 3.14776C14.9553 3.33677 15.0498 3.62028 15.1443 3.90378C15.2388 4.18729 15.2388 4.56529 15.2388 4.9433C15.2388 5.69932 15.0498 6.36084 14.6718 6.73885C14.2938 7.11686 13.7267 7.40036 13.0652 7.40036C12.6872 7.40036 12.4037 7.30586 12.1202 7.21136C11.8367 7.11686 11.6477 6.92785 11.4587 6.73885C11.2697 6.54984 11.1752 6.26633 11.0807 5.98283C10.9862 5.69932 10.9862 5.32131 10.9862 4.9433ZM12.2147 4.9433C12.2147 5.1323 12.2147 5.32131 12.3092 5.51032C12.3092 5.69932 12.4037 5.79382 12.4982 5.98283C12.5927 6.07733 12.6872 6.17184 12.7817 6.26634C12.8762 6.36084 13.0652 6.36083 13.2542 6.36083C13.5377 6.36083 13.8212 6.26633 13.9157 5.98283C14.0103 5.69932 14.1048 5.41582 14.1048 4.84881C14.1048 4.37629 14.0103 4.09278 13.9157 3.80928C13.7267 3.52577 13.5377 3.43127 13.1597 3.43127C12.8762 3.43127 12.5927 3.52577 12.4982 3.80928C12.3092 4.09278 12.2147 4.47079 12.2147 4.9433Z" fill="white"/>
<path d="M20.1529 5.13232L20.2474 4.1873L19.8694 4.9433L19.0189 6.36083H18.5464L17.6014 4.9433L17.2234 4.1873H17.1289L17.2234 5.13232V7.30585H16.1838V2.67526H17.4124L18.4519 4.47079L18.7354 5.03781L19.0189 4.47079L19.9639 2.76977H21.1924V7.40036H20.0584V5.13232H20.1529Z" fill="white"/>
<path d="M25.067 3.71479H23.5549V7.30585H22.3264V2.67526H26.2955V7.30585H25.067V3.71479Z" fill="white"/>
<path d="M29.8866 3.71479H28.9416C28.9416 4.1873 28.8471 4.5653 28.8471 5.03781C28.7526 5.51032 28.7526 5.88832 28.5636 6.17183C28.4691 6.54984 28.2801 6.83335 28.0911 7.02235C27.9021 7.21136 27.6186 7.30585 27.3351 7.30585C26.957 7.30585 26.768 7.30586 26.579 7.21135L26.768 6.26634C26.8625 6.26634 26.957 6.36083 27.0515 6.36083C27.146 6.36083 27.2406 6.26633 27.3351 6.17183C27.4296 6.07733 27.5241 5.88833 27.6186 5.60483C27.7131 5.32132 27.7131 4.9433 27.8076 4.47079C27.8076 3.99828 27.9021 3.43128 27.9021 2.67526H31.1151V7.30585H29.8866V3.71479Z" fill="white"/>
<path d="M35.8402 6.92786C35.6512 7.11686 35.3677 7.21136 35.0842 7.30586C34.8007 7.40036 34.4227 7.49487 34.0446 7.49487C33.2886 7.49487 32.7216 7.30586 32.4381 6.83335C32.0601 6.36084 31.8711 5.79383 31.8711 5.03781C31.8711 4.1873 32.0601 3.62029 32.4381 3.24228C32.8161 2.86427 33.3831 2.67526 34.0446 2.67526C34.2336 2.67526 34.5172 2.67527 34.7062 2.76977C34.8952 2.86427 35.0842 2.95876 35.2732 3.05326C35.4622 3.24227 35.5567 3.43128 35.6512 3.62028C35.7457 3.90379 35.8402 4.1873 35.8402 4.5653C35.8402 4.65981 35.8402 4.8488 35.8402 4.94331C35.8402 5.13231 35.8402 5.22681 35.7457 5.41582H32.9106C32.9106 5.79382 33.0051 6.07734 33.1941 6.26634C33.3831 6.45535 33.6666 6.54985 34.0446 6.54985C34.3281 6.54985 34.5172 6.54985 34.7062 6.45534C34.8952 6.36084 35.0842 6.26634 35.1787 6.17184L35.8402 6.92786ZM34.1391 3.43128C33.8556 3.43128 33.5721 3.52579 33.4776 3.71479C33.2886 3.9038 33.1941 4.18729 33.1941 4.4708H34.8952C34.8952 4.09279 34.8952 3.9038 34.7062 3.71479C34.6117 3.52579 34.4226 3.43128 34.1391 3.43128Z" fill="white"/>
<path d="M38.3918 5.32132H38.1083V7.21135H36.8798V2.58076H38.1083V4.56531L38.3918 4.4708L39.5258 2.58076H40.8488L39.7148 4.3763L39.2423 4.75431L39.8093 5.13232L41.0378 7.30585H39.5258L38.3918 5.32132Z" fill="white"/>
<path d="M44.6288 7.02236C44.4398 7.11686 44.2508 7.30585 43.9673 7.30585C43.6838 7.40035 43.4003 7.40036 43.1168 7.40036C42.7388 7.40036 42.4553 7.30586 42.1718 7.21136C41.8883 7.11686 41.6993 6.92785 41.5103 6.73885C41.3213 6.54984 41.2268 6.26633 41.1323 5.98283C41.0378 5.69932 41.0378 5.32131 41.0378 4.9433C41.0378 4.18728 41.2268 3.52577 41.6048 3.14776C41.9828 2.76976 42.4553 2.48625 43.1168 2.48625C43.4948 2.48625 43.7783 2.48624 43.9673 2.58075C44.1563 2.67525 44.3453 2.67526 44.5343 2.76976L44.2508 3.71478C44.0618 3.62028 43.9673 3.62027 43.8728 3.52577C43.7783 3.52577 43.5893 3.43127 43.4003 3.43127C43.0223 3.43127 42.8333 3.52578 42.6443 3.71478C42.4553 3.90379 42.3608 4.28179 42.3608 4.7543C42.3608 4.9433 42.3608 5.13231 42.4553 5.32132C42.4553 5.51032 42.5498 5.60482 42.6443 5.79383C42.7388 5.88833 42.8333 5.98283 43.0223 6.07734C43.1168 6.17184 43.3058 6.17183 43.4948 6.17183C43.6838 6.17183 43.8728 6.17184 44.0618 6.07734C44.2508 5.98283 44.3453 5.98282 44.4398 5.88832L44.6288 7.02236Z" fill="white"/>
<path d="M48.0309 5.4158H46.5189V7.21133H45.2903V2.58076H46.5189V4.3763H48.0309V2.58076H49.2594V7.21133H48.0309V5.4158Z" fill="white"/>
<path d="M51.5275 4.28179C51.7165 4.28179 51.811 4.2818 52 4.1873C52.189 4.1873 52.2835 4.1873 52.378 4.1873C52.6615 4.1873 52.945 4.18729 53.134 4.28179C53.323 4.37629 53.512 4.4708 53.6065 4.5653C53.701 4.6598 53.7955 4.8488 53.89 5.03781C53.9845 5.22681 53.9845 5.41582 53.9845 5.60483C53.9845 5.88833 53.9845 6.17182 53.89 6.36083C53.7955 6.54983 53.701 6.73884 53.512 6.92785C53.323 7.02235 53.134 7.21135 52.8505 7.21135C52.567 7.30586 52.2835 7.30585 51.9055 7.30585C51.5275 7.30585 51.244 7.30585 50.9605 7.30585C50.677 7.30585 50.488 7.30585 50.2045 7.30585V2.67526H51.433V4.28179H51.5275ZM51.5275 6.26634C51.7165 6.26634 51.9055 6.36083 52.0945 6.36083C52.378 6.36083 52.567 6.26633 52.6615 6.17183C52.756 6.07733 52.8505 5.88832 52.8505 5.69932C52.8505 5.51031 52.756 5.32131 52.6615 5.22681C52.567 5.13231 52.378 5.03781 52.0945 5.03781C51.9055 5.03781 51.7165 5.03781 51.5275 5.13232V6.26634ZM54.5516 2.67526H55.7801V7.30585H54.5516V2.67526Z" fill="white"/>
<path d="M60.5996 6.92786C60.4106 7.11686 60.1271 7.21136 59.8436 7.30586C59.5601 7.40036 59.1821 7.49487 58.8041 7.49487C58.0481 7.49487 57.4811 7.30586 57.1976 6.83335C56.8196 6.36084 56.6306 5.79383 56.6306 5.03781C56.6306 4.1873 56.8196 3.62029 57.1976 3.24228C57.5756 2.86427 58.1426 2.67526 58.8041 2.67526C58.9931 2.67526 59.2766 2.67527 59.4656 2.76977C59.6546 2.86427 59.8436 2.95876 60.0326 3.05326C60.2216 3.24227 60.3161 3.43128 60.4106 3.62028C60.5051 3.90379 60.5996 4.1873 60.5996 4.5653C60.5996 4.65981 60.5996 4.8488 60.5996 4.94331C60.5996 5.13231 60.5996 5.22681 60.5051 5.41582H57.6701C57.6701 5.79382 57.7646 6.07734 57.9536 6.26634C58.1426 6.45535 58.4261 6.54985 58.8041 6.54985C59.0876 6.54985 59.2766 6.54985 59.4656 6.45534C59.6546 6.36084 59.8436 6.26634 59.9381 6.17184L60.5996 6.92786ZM58.8986 3.43128C58.6151 3.43128 58.3316 3.52579 58.2371 3.71479C58.0481 3.9038 57.9536 4.18729 57.9536 4.4708H59.6546C59.6546 4.09279 59.6546 3.9038 59.4656 3.71479C59.3711 3.52579 59.0876 3.43128 58.8986 3.43128Z" fill="white"/>
<path d="M63.9072 2.67525H64.7577L64.8522 3.24227C65.0413 3.05327 65.2303 2.86426 65.4193 2.67525C65.6083 2.58075 65.8918 2.48625 66.2698 2.48625C66.8368 2.48625 67.3093 2.67525 67.5928 3.05326C67.8763 3.43126 68.0653 3.99829 68.0653 4.8488C68.0653 5.22681 68.0653 5.60481 67.9708 5.88832C67.8763 6.17183 67.7818 6.45534 67.5928 6.73885C67.4038 6.92785 67.2148 7.11685 66.9313 7.21136C66.6478 7.30586 66.3643 7.40036 65.9863 7.40036C65.7973 7.40036 65.6083 7.40036 65.5138 7.40036C65.4193 7.40036 65.2302 7.30585 65.1357 7.30585V9.19589H63.9072V2.67525ZM65.9863 3.52577C65.7973 3.52577 65.6083 3.62028 65.4193 3.71478C65.3248 3.80928 65.1357 3.99828 65.1357 4.28179V6.17183C65.2302 6.26633 65.3248 6.26633 65.4193 6.36083C65.5138 6.36083 65.7028 6.45534 65.7973 6.45534C66.1753 6.45534 66.3643 6.36084 66.5533 6.07733C66.7423 5.79383 66.8368 5.41582 66.8368 4.8488C66.8368 4.4708 66.7423 4.09279 66.6478 3.90378C66.5533 3.62028 66.3643 3.52577 65.9863 3.52577Z" fill="white"/>
<path d="M72.6959 6.92786C72.5069 7.11686 72.2234 7.21136 71.9399 7.30586C71.6564 7.40036 71.2783 7.49487 70.9003 7.49487C70.1443 7.49487 69.5773 7.30586 69.2938 6.83335C68.9158 6.36084 68.7268 5.79383 68.7268 5.03781C68.7268 4.1873 68.9158 3.62029 69.2938 3.24228C69.6718 2.86427 70.2388 2.67526 70.9003 2.67526C71.0893 2.67526 71.3729 2.67527 71.5619 2.76977C71.7509 2.86427 71.9399 2.95876 72.1289 3.05326C72.3179 3.24227 72.4124 3.43128 72.5069 3.62028C72.6014 3.90379 72.6959 4.1873 72.6959 4.5653C72.6959 4.65981 72.6959 4.8488 72.6959 4.94331C72.6959 5.13231 72.6959 5.22681 72.6014 5.41582H69.7663C69.7663 5.79382 69.8608 6.07734 70.0498 6.26634C70.2388 6.45535 70.5223 6.54985 70.9003 6.54985C71.1838 6.54985 71.3729 6.54985 71.5619 6.45534C71.7509 6.36084 71.9399 6.26634 72.0344 6.17184L72.6959 6.92786ZM70.9948 3.43128C70.7113 3.43128 70.4278 3.52579 70.3333 3.71479C70.1443 3.9038 70.0498 4.18729 70.0498 4.4708H71.7509C71.7509 4.09279 71.7509 3.9038 71.5619 3.71479C71.4674 3.52579 71.2784 3.43128 70.9948 3.43128Z" fill="white"/>
<path d="M73.7354 7.30585V2.67526H74.9639V6.26634H76.0979V2.67526H77.3264V6.26634H78.4604V2.67526H79.6889V7.30585H73.7354Z" fill="white"/>
<path d="M84.4141 6.92786C84.2251 7.11686 83.9416 7.21136 83.658 7.30586C83.3745 7.40036 82.9965 7.49487 82.6185 7.49487C81.8625 7.49487 81.2955 7.30586 81.012 6.83335C80.634 6.36084 80.445 5.79383 80.445 5.03781C80.445 4.1873 80.634 3.62029 81.012 3.24228C81.39 2.86427 81.957 2.67526 82.6185 2.67526C82.8075 2.67526 83.091 2.67527 83.28 2.76977C83.4691 2.86427 83.6581 2.95876 83.8471 3.05326C84.0361 3.24227 84.1306 3.43128 84.2251 3.62028C84.3196 3.90379 84.4141 4.1873 84.4141 4.5653C84.4141 4.65981 84.4141 4.8488 84.4141 4.94331C84.4141 5.13231 84.4141 5.22681 84.3196 5.41582H81.4845C81.4845 5.79382 81.579 6.07734 81.768 6.26634C81.957 6.45535 82.2405 6.54985 82.6185 6.54985C82.902 6.54985 83.091 6.54985 83.28 6.45534C83.4691 6.36084 83.6581 6.26634 83.7526 6.17184L84.4141 6.92786ZM82.713 3.43128C82.4295 3.43128 82.146 3.52579 82.0515 3.71479C81.8625 3.9038 81.768 4.18729 81.768 4.4708H83.469C83.469 4.09279 83.4691 3.9038 83.28 3.71479C83.1855 3.52579 82.9965 3.43128 82.713 3.43128Z" fill="white"/>
<path d="M88.1942 5.4158H86.6821V7.21133H85.4536V2.58076H86.6821V4.3763H88.1942V2.58076H89.4227V7.21133H88.1942V5.4158Z" fill="white"/>
<path d="M93.2027 5.13231V4.47079L92.8247 5.13231L91.1237 7.21133H90.3677V2.58076H91.5962V4.7543L91.5017 5.4158L91.8797 4.7543L93.5807 2.58076H94.3367V7.21133H93.1082V5.13231H93.2027Z" fill="white"/>
<path d="M97.9278 5.51031L97.3608 5.60481L96.5103 7.21133H95.0928L96.0378 5.79381L96.5103 5.4158C96.2268 5.3213 95.9433 5.22679 95.7543 4.94329C95.5653 4.65979 95.4708 4.37628 95.4708 3.99828C95.4708 3.43127 95.6598 3.05327 96.0378 2.76977C96.4158 2.48626 96.9828 2.39175 97.7388 2.39175C98.0223 2.39175 98.3058 2.39175 98.5893 2.39175C98.8728 2.39175 99.0618 2.48626 99.2508 2.48626V7.11683H98.0223V5.51031H97.9278ZM97.9278 4.94329V3.62028C97.8333 3.62028 97.7388 3.52577 97.7388 3.52577C97.6443 3.52577 97.5498 3.52577 97.5498 3.52577C97.2663 3.52577 97.0773 3.62028 96.8883 3.71478C96.6993 3.80928 96.6993 3.99828 96.6993 4.28178C96.6993 4.47079 96.7938 4.6598 96.9828 4.8488C97.1718 4.9433 97.3608 5.0378 97.7388 5.0378L97.9278 4.94329Z" fill="white"/>
<path d="M5.22165 16.756H4.27663L4.18213 15.7165H1.06357L0.969066 16.756H0.0240479V14.5825H0.591059C0.685561 14.488 0.685561 14.3935 0.780063 14.2045C0.874564 14.0155 0.969066 13.8265 0.969066 13.5429C1.06357 13.2594 1.15807 12.8814 1.15807 12.5034C1.25257 12.1254 1.25257 11.5584 1.25257 10.9914H4.56014V14.5825H5.22165V16.756ZM3.33161 14.677V12.0309H2.38659C2.38659 12.2199 2.38659 12.5034 2.29209 12.7869C2.29209 13.0704 2.19759 13.2594 2.19759 13.5429C2.19759 13.732 2.10309 14.0155 2.00859 14.2045C1.91408 14.3935 1.91408 14.5825 1.81958 14.677H3.33161Z" fill="white"/>
<path d="M8.43469 12.1254H7.48967C7.48967 12.5979 7.39517 12.9759 7.39517 13.4484C7.30067 13.921 7.30067 14.299 7.11167 14.5825C7.01717 14.9605 6.82816 15.244 6.63916 15.433C6.45016 15.622 6.16665 15.7165 5.88315 15.7165C5.50514 15.7165 5.31614 15.7165 5.12714 15.622L5.31614 14.677C5.41064 14.677 5.50514 14.7715 5.59964 14.7715C5.69415 14.7715 5.78865 14.677 5.88315 14.5825C5.97765 14.488 6.07215 14.299 6.16665 14.0155C6.26115 13.732 6.26115 13.354 6.35566 12.8814C6.35566 12.4089 6.45016 11.8419 6.45016 11.0859H9.66321V15.7165H8.43469V12.1254Z" fill="white"/>
<path d="M13.0653 13.9209L12.4983 14.0155L11.6478 15.622H10.2302L11.1752 14.2045L11.6478 13.8265C11.3642 13.7319 11.0807 13.6374 10.8917 13.3539C10.7027 13.0704 10.6082 12.7869 10.6082 12.4089C10.6082 11.8419 10.7972 11.4639 11.1752 11.1804C11.5533 10.8969 12.1203 10.8024 12.8763 10.8024C13.1598 10.8024 13.4433 10.8024 13.7268 10.8024C14.0103 10.8024 14.1993 10.8969 14.3883 10.8969V15.5275H13.0653V13.9209ZM13.0653 13.2594V11.9364C12.9708 11.9364 12.8763 11.8419 12.8763 11.8419C12.7818 11.8419 12.6873 11.8419 12.6873 11.8419C12.4038 11.8419 12.2148 11.9364 12.0258 12.0309C11.8368 12.1254 11.8368 12.3144 11.8368 12.5979C11.8368 12.7869 11.9313 12.9759 12.1203 13.1649C12.3093 13.2594 12.4983 13.3539 12.8763 13.3539L13.0653 13.2594Z" fill="white"/>
<path d="M20.3419 12.1254H18.8299V15.7165H17.6014V11.0859H21.5704V15.7165H20.3419V12.1254Z" fill="white"/>
<path d="M22.421 13.354C22.421 12.598 22.61 11.9364 22.988 11.5584C23.366 11.1804 23.933 10.8969 24.5945 10.8969C24.9725 10.8969 25.256 10.9914 25.5395 11.0859C25.823 11.1804 26.012 11.3694 26.201 11.5584C26.39 11.7474 26.4845 12.0309 26.579 12.3144C26.6735 12.5979 26.6735 12.976 26.6735 13.354C26.6735 14.11 26.4845 14.7715 26.1065 15.1495C25.7285 15.5275 25.1615 15.811 24.5 15.811C24.122 15.811 23.8385 15.7165 23.555 15.622C23.2715 15.5275 23.0825 15.3385 22.8935 15.1495C22.7045 14.9605 22.61 14.677 22.5155 14.3935C22.421 14.0155 22.421 13.732 22.421 13.354ZM23.6495 13.354C23.6495 13.543 23.6495 13.732 23.744 13.921C23.744 14.11 23.8385 14.2045 23.933 14.3935C24.0275 14.488 24.122 14.5825 24.2165 14.677C24.311 14.7715 24.5 14.7715 24.689 14.7715C24.9725 14.7715 25.256 14.677 25.3505 14.3935C25.445 14.11 25.5395 13.8265 25.5395 13.2595C25.5395 12.7869 25.445 12.5035 25.3505 12.2199C25.1615 11.9364 24.9725 11.8419 24.5945 11.8419C24.311 11.8419 24.0275 11.9364 23.933 12.2199C23.744 12.5035 23.6495 12.787 23.6495 13.354Z" fill="white"/>
<path d="M31.3987 15.244C31.2096 15.433 30.9261 15.5275 30.6426 15.622C30.3591 15.7165 29.9811 15.811 29.6031 15.811C28.8471 15.811 28.2801 15.622 27.9966 15.1495C27.6186 14.677 27.4296 14.11 27.4296 13.354C27.4296 12.5034 27.6186 11.9364 27.9966 11.5584C28.3746 11.1804 28.9416 10.9914 29.6031 10.9914C29.7921 10.9914 30.0756 10.9914 30.2646 11.0859C30.4536 11.1804 30.6426 11.2749 30.8316 11.3694C31.0206 11.5584 31.1151 11.7474 31.2096 11.9364C31.3041 12.2199 31.3987 12.5034 31.3987 12.8814C31.3987 12.9759 31.3987 13.1649 31.3987 13.2594C31.3987 13.4484 31.3986 13.543 31.3041 13.732H28.4691C28.4691 14.11 28.5636 14.3935 28.7526 14.5825C28.9416 14.7715 29.2251 14.866 29.6031 14.866C29.8866 14.866 30.0756 14.866 30.2646 14.7715C30.4536 14.677 30.6426 14.5825 30.7371 14.488L31.3987 15.244ZM29.6031 11.8419C29.3196 11.8419 29.0361 11.9364 28.9416 12.1254C28.7526 12.3144 28.6581 12.5979 28.6581 12.8814H30.3591C30.3591 12.5034 30.3591 12.3144 30.1701 12.1254C30.0756 11.9364 29.8866 11.8419 29.6031 11.8419Z" fill="white"/>
<path d="M32.8162 13.732V12.8815H33.3832C33.5722 12.8815 33.7612 12.8815 33.9502 12.787C34.0447 12.6924 34.1392 12.598 34.1392 12.4089C34.1392 12.2199 34.0447 12.1254 33.9502 12.0309C33.8557 11.9364 33.6667 11.9364 33.3832 11.9364C33.0997 11.9364 32.9107 11.9364 32.7217 12.0309C32.5326 12.1254 32.3436 12.1254 32.2491 12.2199L31.9656 11.2749C32.1546 11.1804 32.4381 11.0859 32.7217 10.9914C33.0052 10.8969 33.3832 10.8969 33.6667 10.8969C34.2337 10.8969 34.6117 10.9914 34.8952 11.1804C35.1787 11.3694 35.2732 11.6529 35.2732 12.0309C35.2732 12.1254 35.2732 12.2199 35.2732 12.3144C35.2732 12.4089 35.1787 12.5034 35.1787 12.5979C35.0842 12.6925 35.0842 12.787 34.9897 12.8815C34.8952 12.976 34.8007 12.976 34.7062 13.0705C34.9897 13.165 35.2732 13.2595 35.3677 13.4485C35.4622 13.6375 35.5567 13.921 35.5567 14.2045C35.5567 14.3935 35.5567 14.5825 35.4622 14.7715C35.3677 14.9605 35.2732 15.055 35.0842 15.244C34.8952 15.3385 34.7062 15.433 34.4227 15.5275C34.1392 15.622 33.8557 15.622 33.5722 15.622C33.1942 15.622 32.9107 15.622 32.7217 15.5275C32.4381 15.433 32.2491 15.3385 32.0601 15.244L32.3436 14.299C32.5326 14.3935 32.6272 14.488 32.8162 14.488C33.0052 14.5825 33.2887 14.5825 33.4777 14.5825C34.0447 14.5825 34.3282 14.3935 34.3282 14.0155C34.3282 13.8265 34.2337 13.732 34.1392 13.6375C33.9502 13.543 33.7612 13.543 33.2887 13.543H32.8162V13.732Z" fill="white"/>
<path d="M41.0378 16.756H40.1873L40.0928 15.7165H36.9742L36.8797 16.756H36.0292V14.5825H36.5962C36.6907 14.488 36.6907 14.3935 36.7852 14.2045C36.8797 14.0155 36.9742 13.8265 36.9742 13.5429C37.0687 13.2594 37.1632 12.8814 37.1632 12.5034C37.2577 12.1254 37.2577 11.5584 37.2577 10.9914H40.4708V14.5825H41.1323V16.756H41.0378ZM39.1477 14.677V12.0309H38.2027C38.2027 12.2199 38.2027 12.5034 38.1082 12.7869C38.1082 13.0704 38.0137 13.2594 38.0137 13.5429C38.0137 13.732 37.9192 14.0155 37.8247 14.2045C37.7302 14.3935 37.7302 14.5825 37.6357 14.677H39.1477Z" fill="white"/>
<path d="M41.4158 13.354C41.4158 12.598 41.6048 11.9364 41.9828 11.5584C42.3608 11.1804 42.9278 10.8969 43.5893 10.8969C43.9673 10.8969 44.2508 10.9914 44.5343 11.0859C44.8178 11.1804 45.0068 11.3694 45.1958 11.5584C45.3848 11.7474 45.4793 12.0309 45.5739 12.3144C45.6684 12.5979 45.6684 12.976 45.6684 13.354C45.6684 14.11 45.4793 14.7715 45.1013 15.1495C44.7233 15.5275 44.1563 15.811 43.4948 15.811C43.1168 15.811 42.8333 15.7165 42.5498 15.622C42.2663 15.5275 42.0773 15.3385 41.8883 15.1495C41.6993 14.9605 41.6048 14.677 41.5103 14.3935C41.5103 14.0155 41.4158 13.732 41.4158 13.354ZM42.6443 13.354C42.6443 13.543 42.6443 13.732 42.7388 13.921C42.7388 14.11 42.8333 14.2045 42.9278 14.3935C43.0223 14.488 43.1168 14.5825 43.2113 14.677C43.3058 14.7715 43.4948 14.7715 43.6838 14.7715C43.9673 14.7715 44.2508 14.677 44.3453 14.3935C44.4398 14.11 44.5343 13.8265 44.5343 13.2595C44.5343 12.7869 44.4398 12.5035 44.3453 12.2199C44.1563 11.9364 43.9673 11.8419 43.5893 11.8419C43.3058 11.8419 43.0223 11.9364 42.9278 12.2199C42.7388 12.5035 42.6443 12.787 42.6443 13.354Z" fill="white"/>
<path d="M48.2199 13.7319H47.9364V15.622H46.7079V10.9914H47.9364V12.9759L48.2199 12.8814L49.3539 10.9914H50.6769L49.5429 12.7869L49.0704 13.1649L49.6374 13.5429L50.866 15.7165H49.4484L48.2199 13.7319Z" fill="white"/>
<path d="M54.3625 11.8419C54.5515 11.5584 54.7405 11.3694 55.024 11.2749C55.3075 11.1804 55.591 11.0859 55.8745 11.0859C56.4416 11.0859 56.9141 11.2749 57.1976 11.5584C57.5756 11.9364 57.6701 12.4089 57.6701 13.165C57.6701 14.0155 57.4811 14.677 57.1031 15.055C56.7251 15.5275 56.1581 15.7165 55.4965 15.7165C54.7405 15.7165 54.268 15.433 53.89 14.9605C53.512 14.488 53.323 13.732 53.323 12.6924C53.323 12.1254 53.323 11.7474 53.4175 11.3694C53.512 10.9914 53.6065 10.7079 53.701 10.4244C53.7955 10.1409 53.9845 9.95189 54.079 9.76289C54.268 9.57388 54.457 9.47939 54.646 9.38489C54.835 9.29038 55.024 9.19587 55.3075 9.19587C55.4965 9.19587 55.78 9.10138 55.969 9.10138C56.2526 9.10138 56.5361 9.00687 56.8196 9.00687C57.0086 9.00687 57.1976 8.91237 57.2921 8.81787V9.85739C57.1976 9.9519 57.0086 10.0464 56.7251 10.0464C56.5361 10.0464 56.1581 10.1409 55.78 10.1409C55.591 10.1409 55.3075 10.1409 55.1185 10.2354C54.9295 10.3299 54.7405 10.3299 54.646 10.4244C54.5515 10.5189 54.457 10.7079 54.3625 10.8969C54.457 11.2749 54.3625 11.5584 54.3625 11.8419ZM54.5515 13.354C54.5515 13.732 54.646 14.11 54.7405 14.299C54.9295 14.5825 55.1185 14.677 55.4965 14.677C55.8745 14.677 56.0635 14.5825 56.2526 14.299C56.4416 14.11 56.4416 13.732 56.4416 13.2594C56.4416 12.8814 56.3471 12.5034 56.2526 12.3144C56.1581 12.1254 55.8745 12.0309 55.591 12.0309C55.213 12.0309 55.024 12.1254 54.835 12.4089C54.646 12.6924 54.5515 12.9759 54.5515 13.354Z" fill="white"/>
<path d="M62.3007 15.244C62.1117 15.433 61.8282 15.5275 61.5447 15.622C61.2612 15.7165 60.8831 15.811 60.5051 15.811C59.7491 15.811 59.1821 15.622 58.8986 15.1495C58.5206 14.677 58.3316 14.11 58.3316 13.354C58.3316 12.5034 58.5206 11.9364 58.8986 11.5584C59.2766 11.1804 59.8436 10.9914 60.5051 10.9914C60.6941 10.9914 60.9777 10.9914 61.1667 11.0859C61.3557 11.1804 61.5447 11.2749 61.7337 11.3694C61.9227 11.5584 62.0172 11.7474 62.1117 11.9364C62.2062 12.2199 62.3007 12.5034 62.3007 12.8814C62.3007 12.9759 62.3007 13.1649 62.3007 13.2594C62.3007 13.4484 62.3007 13.543 62.2062 13.732H59.3711C59.3711 14.11 59.4656 14.3935 59.6546 14.5825C59.8436 14.7715 60.1271 14.866 60.5051 14.866C60.7886 14.866 60.9777 14.866 61.1667 14.7715C61.3557 14.677 61.5447 14.5825 61.6392 14.488L62.3007 15.244ZM60.5996 11.8419C60.3161 11.8419 60.0326 11.9364 59.9381 12.1254C59.7491 12.3144 59.6546 12.5979 59.6546 12.8814H61.3557C61.3557 12.5034 61.3557 12.3144 61.1667 12.1254C61.0722 11.9364 60.7887 11.8419 60.5996 11.8419Z" fill="white"/>
<path d="M63.8127 13.732V12.8815H64.3797C64.5687 12.8815 64.7577 12.8815 64.9467 12.787C65.0412 12.6924 65.1357 12.598 65.1357 12.4089C65.1357 12.2199 65.0412 12.1254 64.9467 12.0309C64.8522 11.9364 64.6632 11.9364 64.3797 11.9364C64.0962 11.9364 63.9072 11.9364 63.7182 12.0309C63.5292 12.1254 63.3402 12.1254 63.2457 12.2199L62.9622 11.2749C63.1512 11.1804 63.4347 11.0859 63.7182 10.9914C64.0017 10.8969 64.3797 10.8969 64.6632 10.8969C65.2302 10.8969 65.6082 10.9914 65.8917 11.1804C66.1753 11.3694 66.2698 11.6529 66.2698 12.0309C66.2698 12.1254 66.2698 12.2199 66.2698 12.3144C66.2698 12.4089 66.1752 12.5034 66.1752 12.5979C66.0807 12.6925 66.0807 12.787 65.9862 12.8815C65.8917 12.976 65.7972 12.976 65.7027 13.0705C65.9862 13.165 66.2698 13.2595 66.3643 13.4485C66.4588 13.6375 66.5533 13.921 66.5533 14.2045C66.5533 14.3935 66.5533 14.5825 66.4588 14.7715C66.3643 14.9605 66.2698 15.055 66.0807 15.244C65.8917 15.3385 65.7027 15.433 65.4192 15.5275C65.1357 15.622 64.8522 15.622 64.5687 15.622C64.1907 15.622 63.9072 15.622 63.7182 15.5275C63.4347 15.433 63.2457 15.3385 63.0567 15.244L63.3402 14.299C63.5292 14.3935 63.6237 14.488 63.8127 14.488C64.0017 14.5825 64.2852 14.5825 64.4742 14.5825C65.0412 14.5825 65.3247 14.3935 65.3247 14.0155C65.3247 13.8265 65.2302 13.732 65.1357 13.6375C64.9467 13.543 64.7577 13.543 64.2852 13.543H63.8127V13.732Z" fill="white"/>
<path d="M72.3179 12.1254H70.8058V15.7165H69.5773V11.0859H73.5464V15.7165H72.3179V12.1254Z" fill="white"/>
<path d="M74.5859 10.9914H75.4365L75.531 11.5584C75.72 11.3694 75.909 11.1804 76.098 10.9914C76.287 10.8969 76.5705 10.8024 76.9485 10.8024C77.5155 10.8024 77.988 10.9914 78.2715 11.3694C78.555 11.7474 78.744 12.3144 78.744 13.1649C78.744 13.5429 78.744 13.9209 78.6495 14.2044C78.555 14.4879 78.4605 14.7715 78.2715 15.055C78.0825 15.244 77.8935 15.433 77.61 15.5275C77.3265 15.622 77.043 15.7165 76.665 15.7165C76.476 15.7165 76.287 15.7165 76.1925 15.7165C76.098 15.7165 75.909 15.622 75.8145 15.622V17.512H74.5859V10.9914ZM76.665 11.9364C76.476 11.9364 76.287 12.0309 76.098 12.1254C76.0035 12.2199 75.8145 12.4089 75.8145 12.6924V14.5825C75.909 14.677 76.0035 14.677 76.098 14.7715C76.1925 14.7715 76.3815 14.8659 76.476 14.8659C76.854 14.8659 77.043 14.7715 77.232 14.4879C77.421 14.2044 77.5155 13.8264 77.5155 13.2594C77.5155 12.8814 77.421 12.5034 77.3265 12.3144C77.232 12.0309 77.043 11.9364 76.665 11.9364Z" fill="white"/>
<path d="M79.4055 13.354C79.4055 12.598 79.5945 11.9364 79.9725 11.5584C80.3505 11.1804 80.9175 10.8969 81.5791 10.8969C81.9571 10.8969 82.2406 10.9914 82.5241 11.0859C82.8076 11.1804 82.9966 11.3694 83.1856 11.5584C83.3746 11.7474 83.4691 12.0309 83.5636 12.3144C83.6581 12.5979 83.6581 12.976 83.6581 13.354C83.6581 14.11 83.4691 14.7715 83.0911 15.1495C82.7131 15.5275 82.1461 15.811 81.4846 15.811C81.1066 15.811 80.823 15.7165 80.5395 15.622C80.256 15.5275 80.067 15.3385 79.878 15.1495C79.689 14.9605 79.5945 14.677 79.5 14.3935C79.5 14.0155 79.4055 13.732 79.4055 13.354ZM80.634 13.354C80.634 13.543 80.634 13.732 80.7285 13.921C80.7285 14.11 80.823 14.2045 80.9176 14.3935C81.0121 14.488 81.1066 14.5825 81.2011 14.677C81.2956 14.7715 81.4846 14.7715 81.6736 14.7715C81.9571 14.7715 82.2406 14.677 82.3351 14.3935C82.5241 14.2045 82.5241 13.8265 82.5241 13.2595C82.5241 12.7869 82.4296 12.5035 82.3351 12.2199C82.1461 11.9364 81.9571 11.8419 81.5791 11.8419C81.2956 11.8419 81.0121 11.9364 80.9176 12.2199C80.7285 12.5035 80.634 12.787 80.634 13.354Z" fill="white"/>
<path d="M85.4536 11.8419C85.6426 11.5584 85.8316 11.3694 86.1151 11.2749C86.3986 11.1804 86.6821 11.0859 86.9656 11.0859C87.5326 11.0859 88.0051 11.2749 88.2886 11.5584C88.5721 11.8419 88.7611 12.4089 88.7611 13.165C88.7611 14.0155 88.5721 14.677 88.1941 15.055C87.8161 15.5275 87.2491 15.7165 86.5876 15.7165C85.8316 15.7165 85.3591 15.433 84.9811 14.9605C84.6031 14.488 84.4141 13.732 84.4141 12.6924C84.4141 12.1254 84.4141 11.7474 84.5086 11.3694C84.6031 10.9914 84.6976 10.7079 84.7921 10.4244C84.8866 10.1409 85.0756 9.95189 85.1701 9.76289C85.3591 9.57388 85.5481 9.47939 85.7371 9.38489C85.9261 9.29038 86.1151 9.19587 86.3986 9.19587C86.5876 9.19587 86.8711 9.10138 87.0601 9.10138C87.3436 9.10138 87.6271 9.00687 87.9106 9.00687C88.0996 9.00687 88.2886 8.91237 88.3831 8.81787V9.85739C88.2886 9.9519 88.0996 10.0464 87.8161 10.0464C87.6271 10.0464 87.2491 10.1409 86.8711 10.1409C86.6821 10.1409 86.3986 10.1409 86.2096 10.2354C86.0206 10.3299 85.8316 10.3299 85.7371 10.4244C85.6426 10.5189 85.5481 10.7079 85.4536 10.8969C85.4536 11.2749 85.4536 11.5584 85.4536 11.8419ZM85.6426 13.354C85.6426 13.732 85.7371 14.11 85.8316 14.299C86.0206 14.5825 86.2096 14.677 86.5876 14.677C86.9656 14.677 87.1546 14.5825 87.3436 14.299C87.5326 14.11 87.5326 13.732 87.5326 13.2594C87.5326 12.8814 87.4381 12.5034 87.3436 12.3144C87.2491 12.1254 86.9656 12.0309 86.6821 12.0309C86.3041 12.0309 86.1151 12.1254 85.9261 12.4089C85.7371 12.6924 85.6426 12.9759 85.6426 13.354Z" fill="white"/>
<path d="M92.1632 12.1254H91.2182C91.2182 12.5979 91.1237 12.9759 91.1237 13.4484C91.0292 13.921 91.0292 14.299 90.8402 14.5825C90.7457 14.9605 90.5567 15.244 90.3677 15.433C90.1787 15.622 89.8952 15.7165 89.6117 15.7165C89.2337 15.7165 89.0447 15.7165 88.8557 15.622L89.0447 14.677C89.1392 14.677 89.2337 14.7715 89.3282 14.7715C89.4227 14.7715 89.5172 14.677 89.6117 14.5825C89.7062 14.488 89.8007 14.299 89.8952 14.0155C89.9897 13.732 89.9897 13.354 90.0842 12.8814C90.0842 12.4089 90.1787 11.8419 90.1787 11.0859H93.3917V15.7165H92.1632V12.1254Z" fill="white"/>
<path d="M98.1169 15.244C97.9278 15.433 97.6443 15.5275 97.3608 15.622C97.0773 15.7165 96.6993 15.811 96.3213 15.811C95.5653 15.811 94.9983 15.622 94.7148 15.1495C94.3368 14.677 94.1478 14.11 94.1478 13.354C94.1478 12.5034 94.3368 11.9364 94.7148 11.5584C95.0928 11.1804 95.6598 10.9914 96.3213 10.9914C96.5103 10.9914 96.7938 10.9914 96.9828 11.0859C97.1718 11.1804 97.3608 11.2749 97.5498 11.3694C97.7388 11.5584 97.8333 11.7474 97.9279 11.9364C98.0224 12.2199 98.1169 12.5034 98.1169 12.8814C98.1169 12.9759 98.1169 13.1649 98.1169 13.2594C98.1169 13.4484 98.1169 13.543 98.0224 13.732H95.1873C95.1873 14.11 95.2818 14.3935 95.4708 14.5825C95.6598 14.7715 95.9433 14.866 96.3213 14.866C96.6048 14.866 96.7938 14.866 96.9828 14.7715C97.1718 14.677 97.3608 14.5825 97.4553 14.488L98.1169 15.244ZM96.4158 11.8419C96.1323 11.8419 95.8488 11.9364 95.7543 12.1254C95.5653 12.3144 95.4708 12.5979 95.4708 12.8814H97.1718C97.1718 12.5034 97.1718 12.3144 96.9828 12.1254C96.8883 11.9364 96.6993 11.8419 96.4158 11.8419Z" fill="white"/>
<path d="M103.125 13.543L103.22 12.5979L102.842 13.354L101.991 14.7715H101.519L100.574 13.354L100.196 12.5979H100.101L100.196 13.543V15.7165H99.1564V11.0859H100.385L101.424 12.8815L101.708 13.4485L101.991 12.8815L102.936 11.1804H104.165V15.811H103.031V13.543H103.125Z" fill="white"/>
</svg>
