<svg width="110" height="54" viewBox="0 0 110 54" fill="none" xmlns="http://www.w3.org/2000/svg">
<path d="M16.3488 1.04468H23.3419C24.0979 1.04468 24.5705 1.42268 24.7595 2.0842L31.9416 22.6856C31.9416 22.7801 31.9416 22.8746 31.9416 22.9691C31.9416 23.0636 31.8471 23.2526 31.7526 23.3471C31.6581 23.4416 31.4691 23.5361 31.2801 23.5361H25.3265C24.665 23.5361 24.2869 23.2526 24.0979 22.6856L23.3419 20.512H16.4433L15.6873 22.6856C15.4983 23.2526 15.1203 23.5361 14.4588 23.5361H8.41066C8.22165 23.5361 8.03265 23.4416 7.93815 23.3471C7.84365 23.2526 7.74915 23.0636 7.74915 22.9691C7.74915 22.8746 7.74915 22.6856 7.74915 22.6856L14.9313 2.0842C15.1203 1.32818 15.5928 1.04468 16.3488 1.04468ZM18.0498 14.3694H21.7354L19.9399 8.32131L18.0498 14.3694Z" fill="white"/>
<path d="M45.5498 23.6306H34.5876C34.3041 23.6306 34.1151 23.5361 34.0206 23.3471C33.8316 23.1581 33.7371 22.9691 33.7371 22.7801V1.89519C33.7371 1.61169 33.8316 1.42268 34.0206 1.32818C34.2096 1.13918 34.3986 1.04468 34.5876 1.04468H45.2663C48.2904 1.04468 50.5584 1.61168 52.0705 2.7457C53.488 3.87972 54.244 5.48625 54.244 7.75429V7.84879C54.244 8.79381 53.9605 9.64432 53.3935 10.3058C52.8265 11.0618 52.2595 11.5344 51.598 11.9124C52.4485 12.2904 53.2045 12.8574 53.7715 13.7079C54.3385 14.5584 54.622 15.5034 54.622 16.5429C54.7165 21.268 51.6925 23.6306 45.5498 23.6306ZM45.4553 9.07732C45.6443 8.79381 45.8333 8.51031 45.8333 8.0378C45.8333 7.56529 45.7388 7.28178 45.4553 6.99828C45.2663 6.71477 44.8883 6.52577 44.5103 6.52577H41.7698V9.45532H44.4158C44.8883 9.45532 45.1718 9.36082 45.4553 9.07732ZM41.7698 14.9364V18.055H44.7938C45.2663 18.055 45.6443 17.866 45.9278 17.5825C46.2114 17.2045 46.3059 16.9209 46.3059 16.4484C46.3059 16.0704 46.2114 15.6924 45.9278 15.4089C45.6443 15.1254 45.2663 14.9364 44.8883 14.9364H41.7698Z" fill="white"/>
<path d="M57.7405 1.04467H63.5996C63.8831 1.04467 64.0721 1.13916 64.1666 1.32817C64.3556 1.51717 64.4501 1.70618 64.4501 1.89518V10.6838L69.9312 1.70617C70.2147 1.23367 70.6872 0.950165 71.2543 0.950165H76.3573C76.6409 0.950165 76.8299 1.04466 76.9244 1.23367C77.1134 1.42267 77.2079 1.61167 77.2079 1.80068V22.6856C77.2079 22.9691 77.1134 23.1581 76.9244 23.2526C76.7354 23.4416 76.5464 23.5361 76.3573 23.5361H70.4982C70.2147 23.5361 70.0257 23.4416 69.9312 23.2526C69.7422 23.0636 69.6477 22.8746 69.6477 22.6856V14.5584L64.1666 22.7801C63.8831 23.2526 63.4106 23.5361 62.8436 23.5361H57.7405C57.457 23.5361 57.268 23.4416 57.1735 23.2526C56.9845 23.0636 56.89 22.8746 56.89 22.6856V1.89518C56.89 1.61168 56.9845 1.42267 57.1735 1.32817C57.268 1.13916 57.457 1.04467 57.7405 1.04467Z" fill="white"/>
<path d="M87.5086 1.04468H94.5017C95.2577 1.04468 95.7302 1.42268 95.9192 2.0842L103.101 22.6856C103.101 22.7801 103.101 22.8746 103.101 22.9691C103.101 23.0636 103.007 23.2526 102.912 23.3471C102.818 23.4416 102.629 23.5361 102.44 23.5361H96.4863C95.8247 23.5361 95.4467 23.2526 95.2577 22.6856L94.5017 20.512H87.6031L86.8471 22.6856C86.6581 23.2526 86.2801 23.5361 85.6185 23.5361H79.6649C79.4759 23.5361 79.2869 23.4416 79.1924 23.3471C79.0979 23.2526 79.0034 23.0636 79.0034 22.9691C79.0034 22.8746 79.0034 22.6856 79.0034 22.6856L85.9966 2.0842C86.1856 1.32818 86.6581 1.04468 87.5086 1.04468ZM89.1151 14.3694H92.8007L91.0052 8.32131L89.1151 14.3694Z" fill="white"/>
<path d="M0.850515 30.4347H19.7508C20.0343 30.4347 20.2234 30.5292 20.3179 30.7182C20.5069 30.9072 20.6014 31.0962 20.6014 31.2852V36.4828C20.6014 36.7663 20.5069 36.9553 20.3179 37.0498C20.1288 37.2388 19.9398 37.3333 19.7508 37.3333H14.3642V52.1701C14.3642 52.4536 14.2697 52.6426 14.0807 52.7371C13.8917 52.9261 13.7027 53.0206 13.5137 53.0206H7.08762C6.80412 53.0206 6.61511 52.9261 6.52061 52.7371C6.33161 52.5481 6.23711 52.3591 6.23711 52.1701V37.3333H0.850515C0.56701 37.3333 0.378007 37.2388 0.283505 37.0498C0.0945016 36.8608 0 36.6718 0 36.4828V31.2852C0 31.0017 0.0945016 30.8127 0.283505 30.7182C0.472508 30.5292 0.661511 30.4347 0.850515 30.4347Z" fill="white"/>
<path d="M24.3814 46.122H27.5945C28.634 46.122 29.2955 45.933 29.39 45.6495L21.8299 31.3797C21.8299 31.2852 21.8299 31.2852 21.8299 31.1907C21.9244 30.7182 22.2079 30.4347 22.6804 30.4347H29.39C29.8625 30.4347 30.146 30.7182 30.4295 31.1907L33.4536 37.5223L35.8161 31.1907C36.0051 30.7182 36.3831 30.4347 36.9502 30.4347H43.6598C43.8488 30.4347 44.0378 30.5292 44.1323 30.6237C44.3213 30.7182 44.3213 30.9072 44.3213 31.0962C44.3213 31.2852 44.3213 31.3797 44.3213 31.3797L37.8952 46.4055C36.7612 49.0515 35.6271 50.7526 34.3986 51.6976C33.1701 52.5481 31.1856 53.0206 28.445 53.0206H24.3814C24.0979 53.0206 23.9089 52.9261 23.8144 52.7371C23.6254 52.5481 23.5309 52.3591 23.5309 52.1701V46.9725C23.5309 46.689 23.6254 46.5 23.8144 46.4055C23.9089 46.2165 24.0979 46.122 24.3814 46.122Z" fill="white"/>
<path d="M46.4948 30.4347H56.134C59.2526 30.4347 61.6151 31.0962 63.4107 32.4192C65.1117 33.7423 66.0567 35.7268 66.0567 38.3728C66.0567 41.0189 65.2062 42.9089 63.4107 44.1375C61.7096 45.366 59.2526 46.0275 56.134 46.0275H54.055V52.1701C54.055 52.4536 53.9605 52.6426 53.7715 52.7371C53.5825 52.9261 53.3935 53.0206 53.2045 53.0206H46.5893C46.3058 53.0206 46.1168 52.9261 46.0223 52.7371C45.8333 52.5481 45.7388 52.3591 45.7388 52.1701V31.2852C45.7388 31.0017 45.8333 30.8127 46.0223 30.7182C46.0223 30.5292 46.3058 30.4347 46.4948 30.4347ZM53.866 36.3883V39.9794H56.134C56.512 39.9794 56.89 39.7904 57.1735 39.5069C57.457 39.2234 57.646 38.8454 57.646 38.2784C57.646 37.7113 57.5515 37.3333 57.268 36.9553C56.9845 36.5773 56.701 36.3883 56.134 36.3883H53.866Z" fill="white"/>
<path d="M81.6495 30.4347H87.9811C88.2646 30.4347 88.4536 30.5292 88.5481 30.7182C88.7371 30.9072 88.8316 31.0962 88.8316 31.2852V52.1701C88.8316 52.4536 88.7371 52.6426 88.5481 52.7371C88.3591 52.9261 88.1701 53.0206 87.9811 53.0206H81.6495C81.366 53.0206 81.177 52.9261 81.0825 52.7371C80.8935 52.5481 80.799 52.3591 80.799 52.1701V45.177H75.6014V52.1701C75.6014 52.4536 75.5069 52.6426 75.3179 52.7371C75.1289 52.9261 74.9399 53.0206 74.7509 53.0206H68.4192C68.1357 53.0206 67.9467 52.9261 67.8522 52.7371C67.6632 52.5481 67.5687 52.3591 67.5687 52.0756V31.1907C67.5687 30.9072 67.6632 30.7182 67.8522 30.6237C68.0412 30.4347 68.2302 30.3402 68.4192 30.3402H74.6564C74.9399 30.3402 75.1289 30.4347 75.2234 30.6237C75.4124 30.8127 75.5069 31.0017 75.5069 31.1907V37.9948H80.7045V31.1907C80.7045 30.9072 80.799 30.7182 80.988 30.6237C81.177 30.5292 81.366 30.4347 81.6495 30.4347Z" fill="white"/>
<path d="M99.2268 46.689H109.149C109.433 46.689 109.622 46.7835 109.716 46.9725C109.905 47.1615 110 47.3505 110 47.5395V52.0756C110 52.3591 109.905 52.5481 109.716 52.6426C109.527 52.8316 109.338 52.9261 109.149 52.9261H92.3282C92.0447 52.9261 91.8557 52.8316 91.7612 52.6426C91.5722 52.4536 91.4777 52.2646 91.4777 52.0756V31.1907C91.4777 30.9072 91.5722 30.7182 91.7612 30.6237C91.9502 30.4347 92.1392 30.3402 92.3282 30.3402H108.866C109.149 30.3402 109.338 30.4347 109.433 30.6237C109.622 30.8127 109.716 31.0017 109.716 31.1907V35.7268C109.716 36.0103 109.622 36.1993 109.433 36.2938C109.244 36.4828 109.055 36.5773 108.866 36.5773H99.2268V38.6563H108.204C108.488 38.6563 108.677 38.7509 108.771 38.9399C108.96 39.1289 109.055 39.3179 109.055 39.5069V43.6649C109.055 43.9484 108.96 44.1375 108.771 44.232C108.582 44.421 108.393 44.5155 108.204 44.5155H99.2268V46.689Z" fill="white"/>
</svg>
