<svg width="16" height="16" viewBox="0 0 16 16" fill="none" xmlns="http://www.w3.org/2000/svg">
<path d="M6.66671 10.6667V10H2.00671L2.00004 12.6667C2.00004 13.4067 2.59337 14 3.33337 14H12.6667C13.4067 14 14 13.4067 14 12.6667V10H9.33337V10.6667H6.66671ZM13.3334 4.66667H10.66V3.33333L9.32671 2H6.66004L5.32671 3.33333V4.66667H2.66671C1.93337 4.66667 1.33337 5.26667 1.33337 6V8C1.33337 8.74 1.92671 9.33333 2.66671 9.33333H6.66671V8H9.33337V9.33333H13.3334C14.0667 9.33333 14.6667 8.73333 14.6667 8V6C14.6667 5.26667 14.0667 4.66667 13.3334 4.66667ZM9.33337 4.66667H6.66671V3.33333H9.33337V4.66667Z" fill="white"/>
</svg>
